<?xml version="1.0" encoding="utf-8"?>
<!-- Generator: Adobe Illustrator 18.1.1, SVG Export Plug-In . SVG Version: 6.00 Build 0)  -->
<svg version="1.1" id="Layer_1" xmlns="http://www.w3.org/2000/svg" xmlns:xlink="http://www.w3.org/1999/xlink" x="0px" y="0px"
	 viewBox="0 0 713.2 351.6" enable-background="new 0 0 713.2 351.6" xml:space="preserve">
<path fill="#FFFFFF" d="M76.1,240.2c1.4,13.1,6.5,23.2,15.3,30.5c8.7,7.3,19.3,10.9,31.6,10.9c10.9,0,20-2.2,27.4-6.7
	c7.4-4.5,13.9-10.1,19.4-16.9l31.2,23.6c-10.2,12.6-21.6,21.6-34.1,26.9c-12.6,5.3-25.8,8-39.6,8c-13.1,0-25.4-2.2-37-6.5
	s-21.7-10.5-30.1-18.5c-8.5-8-15.2-17.6-20.2-28.9c-5-11.3-7.4-23.8-7.4-37.6c0-13.8,2.5-26.3,7.4-37.6c5-11.3,11.7-20.9,20.2-28.9
	c8.5-8,18.5-14.2,30.1-18.5c11.6-4.4,24-6.5,37-6.5c12.1,0,23.2,2.1,33.2,6.4c10,4.2,18.6,10.4,25.8,18.3c7.1,8,12.7,17.9,16.7,29.6
	c4,11.7,6,25.2,6,40.5v12H76.1z M165.4,207.6c-0.2-12.8-4.2-22.9-12-30.3c-7.8-7.4-18.5-11.1-32.3-11.1c-13.1,0-23.4,3.8-31.1,11.3
	c-7.6,7.5-12.3,17.6-14,30.1H165.4z M273.5,312.2h-43.6V37.6h43.6V312.2z M495.3,225c0-13.8,2.5-26.3,7.4-37.6
	c5-11.3,11.7-20.9,20.2-28.9c8.5-8,18.5-14.2,30.1-18.5c11.6-4.4,24-6.5,37-6.5c13.1,0,25.4,2.2,37,6.5
	c11.6,4.4,21.7,10.5,30.1,18.5c8.5,8,15.2,17.6,20.2,28.9c5,11.3,7.4,23.8,7.4,37.6c0,13.8-2.5,26.3-7.4,37.6
	c-5,11.3-11.7,20.9-20.2,28.9c-8.5,8-18.5,14.2-30.1,18.5c-11.6,4.4-24,6.5-37,6.5c-13.1,0-25.4-2.2-37-6.5
	c-11.6-4.4-21.7-10.5-30.1-18.5c-8.5-8-15.2-17.6-20.2-28.9C497.8,251.3,495.3,238.8,495.3,225z M538.9,225c0,6.8,1.1,13.3,3.5,19.6
	c2.3,6.3,5.7,11.9,10.2,16.7c4.5,4.8,9.9,8.7,16.2,11.6c6.3,2.9,13.4,4.4,21.4,4.4c8,0,15.1-1.5,21.4-4.4
	c6.3-2.9,11.7-6.8,16.2-11.6c4.5-4.8,7.9-10.4,10.2-16.7c2.3-6.3,3.5-12.8,3.5-19.6c0-6.8-1.2-13.3-3.5-19.6
	c-2.3-6.3-5.7-11.9-10.2-16.7c-4.5-4.8-9.9-8.7-16.2-11.6c-6.3-2.9-13.4-4.4-21.4-4.4c-8,0-15.1,1.5-21.4,4.4
	c-6.3,2.9-11.7,6.8-16.2,11.6c-4.5,4.8-7.9,10.4-10.2,16.7C540,211.7,538.9,218.2,538.9,225z M378.1,217l71.6-79.2h55.9L430.8,217
	l79.5,95.2h-57.7L378.1,217z M282.5,217l71.6-79.2H410L335.2,217l79.5,95.2H357L282.5,217z"/>
</svg>
