<svg id="Layer_1" data-name="Layer 1" xmlns="http://www.w3.org/2000/svg" viewBox="0 0 330.92 62.01"><defs><style>.cls-1{fill:#999;}</style></defs><title>Untitled-1</title><path class="cls-1" d="M.46,59.8h0Zm0,0V55.17h13l.47,0h0c.42,0,1-.09,1.77-.22h0a18.65,18.65,0,0,0,5.39-1.8h0c3.82-2.1,7.5-5.67,7.58-14.17h0c-.05-7.46-2.92-11.07-6.15-13.32h0A18.49,18.49,0,0,0,14,22.75h0c-.42,0-.58,0-.58,0H.83V.46H5.47V18.08h7.9a23.3,23.3,0,0,1,9.9,2.58h0c5,2.53,10.14,8.24,10.06,18.28h0c.08,10-5.06,15.74-10.06,18.27h0a23.24,23.24,0,0,1-9.9,2.58H.46Z"/><path class="cls-1" d="M.46,60.27v0H0V54.7H13.47l.45,0h0c.4,0,1-.09,1.73-.22h0a18.13,18.13,0,0,0,5.24-1.75h0c3.72-2.08,7.24-5.4,7.34-13.76h0c-.07-7.34-2.82-10.74-6-12.94h0a18,18,0,0,0-8.36-2.79h0l-.54,0H.37V0H5.93V17.62H13.4a23.73,23.73,0,0,1,10.07,2.63h0c5.1,2.57,10.32,8.4,10.32,18.46h0v.22h0v.23h0c0,10.06-5.22,15.89-10.31,18.46h0a23.76,23.76,0,0,1-10.11,2.64H.46Zm.46-.46h0Zm12.41-.46a22.81,22.81,0,0,0,9.72-2.53h0c4.83-2.46,9.8-7.91,9.81-17.64h0v-.23h0c0-.08,0-.16,0-.23h0c0-9.73-5-15.18-9.81-17.64h0a22.78,22.78,0,0,0-9.68-2.53H5V.93H1.29V22.26H13.37l.61,0h0a19,19,0,0,1,8.82,3h0c3.33,2.3,6.31,6.12,6.35,13.7h0c-.05,8.64-3.91,12.45-7.83,14.58h0a19.1,19.1,0,0,1-5.52,1.84h0c-.76.13-1.39.2-1.82.23h0l-.49,0H.93v3.71Z"/><polygon class="cls-1" points="39.28 59.01 39.28 17.46 43.92 17.46 43.92 59.01 39.28 59.01 39.28 59.01"/><path class="cls-1" d="M39.28,59.47V59h0v.46h-.46V17h5.57V59.47Zm4.17-.93V17.93H39.74V58.54Z"/><path class="cls-1" d="M49,38.24A21.57,21.57,0,0,1,70.56,16.67h0A21.57,21.57,0,0,1,92.13,38.24h0A21.57,21.57,0,0,1,70.56,59.8h0A21.57,21.57,0,0,1,49,38.24Zm4.64,0A17,17,0,0,0,70.56,55.17h0A17,17,0,0,0,87.49,38.24h0A17,17,0,0,0,70.56,21.31h0A17,17,0,0,0,53.63,38.24Z"/><path class="cls-1" d="M48.53,38.24h0a22,22,0,0,1,22-22h0a22,22,0,0,1,22,22h0a22,22,0,0,1-22,22h0a22,22,0,0,1-22-22Zm22,21.1a21.11,21.11,0,0,0,21.1-21.1h0a21.1,21.1,0,0,0-21.1-21.1h0a21.1,21.1,0,0,0-21.1,21.1h0a21.11,21.11,0,0,0,21.1,21.1ZM53.17,38.24h0A17.41,17.41,0,0,1,70.56,20.84h0A17.42,17.42,0,0,1,88,38.24h0a17.42,17.42,0,0,1-17.4,17.39h0A17.41,17.41,0,0,1,53.17,38.24ZM70.56,54.7A16.49,16.49,0,0,0,87,38.24h0A16.49,16.49,0,0,0,70.56,21.77h0A16.49,16.49,0,0,0,54.09,38.24h0A16.49,16.49,0,0,0,70.56,54.7Z"/><polygon class="cls-1" points="139.24 59.01 139.24 17.46 143.88 17.46 143.88 59.01 139.24 59.01 139.24 59.01"/><path class="cls-1" d="M139.24,59.47V59h0v.46h-.46V17h5.57V59.47Zm4.17-.93V17.93h-3.71V58.54Z"/><path class="cls-1" d="M171.48,59.8a21.57,21.57,0,0,1-21.57-21.57h0a21.57,21.57,0,0,1,21.57-21.57h7.8v4.64h-7.8a17,17,0,0,0-16.93,16.93h0a17,17,0,0,0,16.93,16.93h7.8V59.8Z"/><path class="cls-1" d="M171.48,60.27v-.93h7.33V55.63h-7.33a17.42,17.42,0,0,1-17.39-17.39h0a17.41,17.41,0,0,1,17.39-17.39h7.33V17.13h-7.33a21.11,21.11,0,0,0-21.11,21.1h0a21.11,21.11,0,0,0,21.11,21.1h0v.93a22,22,0,0,1-22-22h0a22,22,0,0,1,22-22h8.26v.46h0v5.1h-8.26A16.48,16.48,0,0,0,155,38.24h0A16.49,16.49,0,0,0,171.48,54.7h8.26v5.56Z"/><path class="cls-1" d="M127.58,59V38.94h0c-.06-7.8-3.17-11.42-6.51-13.63h0a17.73,17.73,0,0,0-7.85-2.59H101.84V59H97.2V18.08h16a22.08,22.08,0,0,1,9.44,2.79h0c4.76,2.62,9.6,8.29,9.53,18.07h0V59h-4.64Z"/><path class="cls-1" d="M127.58,59.47V59h0v.46h-.46V59s0-2,0-20.06h0c-.08-7.67-3.06-11.08-6.29-13.24h0a17.27,17.27,0,0,0-7.62-2.51H102.3V59.47H96.74V17.62h16.55a22.54,22.54,0,0,1,9.62,2.85h0c4.85,2.66,9.78,8.45,9.77,18.26h0c0,.08,0,.14,0,.21h0c0,16.88,0,19.73,0,20h0v0s0,.51,0,.51h-5.1Zm4.17-.93v-.13h0V55.76h0V39h0c0-.09,0-.17,0-.23h0c0-9.49-4.69-14.91-9.29-17.45h0a21.63,21.63,0,0,0-9.21-2.73H97.67v40h3.71V22.26h11.88a18.18,18.18,0,0,1,8.08,2.66h0c3.43,2.25,6.67,6.1,6.71,14h0v19.6h3.71Z"/><rect class="cls-1" x="39.28" y="0.46" width="4.64" height="4.57"/><path class="cls-1" d="M38.81,5.5V0h5.57V5.5ZM43.92,5V5Zm-4.17-.46h3.71V.93H39.74V4.57Z"/><rect class="cls-1" x="139.24" y="0.46" width="4.64" height="4.57"/><path class="cls-1" d="M138.78,5.5V0h5.57V5.5Zm5.1-.46V5Zm-4.18-.46h3.71V.93h-3.71V4.57Z"/><path class="cls-1" d="M199.16,15.79h1.76v6.89h3.93v1.55h-5.69Z"/><path class="cls-1" d="M209.48,24.23V23.9a2.44,2.44,0,0,1-1.5.44,2.06,2.06,0,0,1-2.28-2,2.14,2.14,0,0,1,2.38-2,2.86,2.86,0,0,1,1.4.36v-.45a.9.9,0,0,0-1-.95.88.88,0,0,0-.91.58h-1.62a2.46,2.46,0,0,1,2.58-2,2.28,2.28,0,0,1,2.58,2.36v3.92Zm0-2.12a1.21,1.21,0,0,0-1.11-.54c-.54,0-1.09.23-1.09.76s.55.76,1.09.76a1.21,1.21,0,0,0,1.11-.54Z"/><path class="cls-1" d="M212.5,18.09h1.71v.56a2.2,2.2,0,0,1,1.65-.7A2.06,2.06,0,0,1,218,20.22v4h-1.7V20.58a1,1,0,0,0-1-1.09,1.12,1.12,0,0,0-1.11.85v3.89H212.5Z"/><path class="cls-1" d="M223.4,23.73a2.12,2.12,0,0,1-1.54.65c-1.79,0-2.79-1.44-2.79-3.2s1-3.22,2.79-3.22a2.12,2.12,0,0,1,1.54.65V15.3h1.72v8.94H223.4Zm0-3.57a1.3,1.3,0,0,0-1.15-.72,1.53,1.53,0,0,0-1.47,1.73,1.53,1.53,0,0,0,1.47,1.72,1.26,1.26,0,0,0,1.15-.71Z"/><path class="cls-1" d="M227.88,22.41a1,1,0,0,0,1,.67c.52,0,.87-.21.87-.6s-.19-.41-.62-.52l-1.24-.27c-.94-.22-1.6-.7-1.6-1.73a2.18,2.18,0,0,1,2.45-2,2.32,2.32,0,0,1,2.61,1.9h-1.62a.9.9,0,0,0-1-.6c-.41,0-.81.19-.81.58s.17.38.55.48l1.26.29c1.07.26,1.64.85,1.64,1.79,0,1.25-1.09,2-2.52,2s-2.56-.72-2.74-2Z"/><path class="cls-1" d="M235.17,18a2.51,2.51,0,0,1,2.69,2.21h-1.68a1,1,0,0,0-1-.76c-.78,0-1.27.71-1.27,1.76s.48,1.75,1.27,1.75a1,1,0,0,0,1-.76h1.68a2.5,2.5,0,0,1-2.69,2.21,2.94,2.94,0,0,1-3-3.2A3,3,0,0,1,235.17,18Z"/><path class="cls-1" d="M242.32,24.23V23.9a2.44,2.44,0,0,1-1.5.44,2.06,2.06,0,0,1-2.28-2,2.14,2.14,0,0,1,2.38-2,2.86,2.86,0,0,1,1.4.36v-.45a.9.9,0,0,0-1-.95.88.88,0,0,0-.91.58h-1.62a2.46,2.46,0,0,1,2.58-2A2.28,2.28,0,0,1,244,20.32v3.92Zm0-2.12a1.21,1.21,0,0,0-1.11-.54c-.54,0-1.09.23-1.09.76s.55.76,1.09.76a1.21,1.21,0,0,0,1.11-.54Z"/><path class="cls-1" d="M247.05,26.5h-1.71V18.09h1.71v.51a2.12,2.12,0,0,1,1.54-.65c1.79,0,2.8,1.48,2.8,3.22s-1,3.2-2.8,3.2a2.12,2.12,0,0,1-1.54-.65Zm0-4.33a1.29,1.29,0,0,0,1.15.71,1.53,1.53,0,0,0,1.47-1.72,1.53,1.53,0,0,0-1.47-1.73,1.3,1.3,0,0,0-1.15.72Z"/><path class="cls-1" d="M257.86,22.23a2.51,2.51,0,0,1-2.72,2.15,2.94,2.94,0,0,1-3-3.2,3,3,0,0,1,3-3.22c1.8,0,2.79,1.25,2.79,3.05v.52h-4.1c.05.92.58,1.47,1.33,1.47a1.06,1.06,0,0,0,1.14-.77Zm-4-1.73h2.38a1.08,1.08,0,0,0-1.1-1.16A1.26,1.26,0,0,0,253.85,20.5Z"/><path class="cls-1" d="M266.35,15.79l3.23,8.44H267.8l-.76-2h-3.16l-.74,2h-1.76l3.23-8.44Zm-1.92,4.92h2.06l-1-2.8Z"/><path class="cls-1" d="M274.26,19.77a1.7,1.7,0,0,0-.85-.21,1.11,1.11,0,0,0-1.17.87v3.81h-1.71V18.09h1.71v.6a1.58,1.58,0,0,1,1.37-.74,1.6,1.6,0,0,1,.65.11Z"/><path class="cls-1" d="M277.78,18a2.51,2.51,0,0,1,2.69,2.21H278.8a1,1,0,0,0-1-.76c-.78,0-1.27.71-1.27,1.76s.48,1.75,1.27,1.75a1,1,0,0,0,1-.76h1.68a2.5,2.5,0,0,1-2.69,2.21,2.94,2.94,0,0,1-3-3.2A3,3,0,0,1,277.78,18Z"/><path class="cls-1" d="M281.53,15.3h1.71v3.35a2.2,2.2,0,0,1,1.65-.7,2.06,2.06,0,0,1,2.17,2.27v4h-1.7V20.58a1,1,0,0,0-1-1.09,1.12,1.12,0,0,0-1.11.85v3.89h-1.71Z"/><path class="cls-1" d="M289.32,17.29a1,1,0,1,1,1-1A1,1,0,0,1,289.32,17.29Zm.85,6.94h-1.71V18.09h1.71Z"/><path class="cls-1" d="M292,19.46h-.94V18.09H292V16.43h1.69v1.66h1.35v1.38h-1.35v2.69a.63.63,0,0,0,.7.7,1.46,1.46,0,0,0,.74-.21v1.51a2.58,2.58,0,0,1-1.1.19,1.8,1.8,0,0,1-2-2Z"/><path class="cls-1" d="M301.67,22.23A2.51,2.51,0,0,1,299,24.37a2.94,2.94,0,0,1-3-3.2,3,3,0,0,1,3-3.22c1.8,0,2.79,1.25,2.79,3.05v.52h-4.1c.05.92.58,1.47,1.33,1.47a1.06,1.06,0,0,0,1.14-.77Zm-4-1.73H300a1.08,1.08,0,0,0-1.1-1.16A1.26,1.26,0,0,0,297.66,20.5Z"/><path class="cls-1" d="M305.43,18a2.51,2.51,0,0,1,2.69,2.21h-1.68a1,1,0,0,0-1-.76c-.78,0-1.27.71-1.27,1.76s.48,1.75,1.27,1.75a1,1,0,0,0,1-.76h1.68a2.5,2.5,0,0,1-2.69,2.21,2.94,2.94,0,0,1-3-3.2A3,3,0,0,1,305.43,18Z"/><path class="cls-1" d="M309.6,19.46h-.94V18.09h.94V16.43h1.69v1.66h1.35v1.38h-1.35v2.69a.63.63,0,0,0,.7.7,1.46,1.46,0,0,0,.74-.21v1.51a2.58,2.58,0,0,1-1.1.19,1.8,1.8,0,0,1-2-2Z"/><path class="cls-1" d="M319.4,24.23h-1.7v-.56a2.23,2.23,0,0,1-1.65.7,2.05,2.05,0,0,1-2.16-2.27v-4h1.7v3.67c0,.65.32,1.09,1,1.09a1.09,1.09,0,0,0,1.1-.85v-3.9h1.72Z"/><path class="cls-1" d="M324.6,19.77a1.7,1.7,0,0,0-.85-.21,1.11,1.11,0,0,0-1.17.87v3.81h-1.71V18.09h1.71v.6A1.58,1.58,0,0,1,324,18a1.6,1.6,0,0,1,.65.11Z"/><path class="cls-1" d="M330.88,22.23a2.51,2.51,0,0,1-2.72,2.15,2.94,2.94,0,0,1-3-3.2,3,3,0,0,1,3-3.22c1.8,0,2.79,1.25,2.79,3.05v.52h-4.1c.05.92.58,1.47,1.33,1.47a1.06,1.06,0,0,0,1.14-.77Zm-4-1.73h2.38a1.08,1.08,0,0,0-1.1-1.16A1.26,1.26,0,0,0,326.86,20.5Z"/><path class="cls-1" d="M200.91,39v2.93h-1.75V33.48h3.44c1.79,0,3,1,3,2.76s-1.18,2.75-3,2.75Zm1.58-4h-1.58v2.52h1.58a1.26,1.26,0,1,0,0-2.52Z"/><path class="cls-1" d="M208.39,41.92h-1.71V33h1.71Z"/><path class="cls-1" d="M213.29,41.92v-.33a2.44,2.44,0,0,1-1.5.44,2.06,2.06,0,0,1-2.28-2,2.14,2.14,0,0,1,2.38-2,2.86,2.86,0,0,1,1.4.36V38a.9.9,0,0,0-1-.95.88.88,0,0,0-.91.58h-1.62a2.46,2.46,0,0,1,2.58-2A2.28,2.28,0,0,1,214.92,38v3.92Zm0-2.12a1.21,1.21,0,0,0-1.11-.54c-.54,0-1.09.23-1.09.76s.55.76,1.09.76a1.21,1.21,0,0,0,1.11-.54Z"/><path class="cls-1" d="M216.31,35.77H218v.56a2.2,2.2,0,0,1,1.65-.7,2.06,2.06,0,0,1,2.17,2.27v4h-1.7V38.26a1,1,0,0,0-1-1.09A1.12,1.12,0,0,0,218,38v3.89h-1.71Z"/><path class="cls-1" d="M223.26,35.77H225v.56a2.2,2.2,0,0,1,1.65-.7,2.06,2.06,0,0,1,2.17,2.27v4h-1.7V38.26a1,1,0,0,0-1-1.09A1.12,1.12,0,0,0,225,38v3.89h-1.71Z"/><path class="cls-1" d="M231.06,35a1,1,0,1,1,1-1A1,1,0,0,1,231.06,35Zm.85,6.94h-1.71V35.77h1.71Z"/><path class="cls-1" d="M233.4,35.77h1.71v.56a2.2,2.2,0,0,1,1.65-.7,2.06,2.06,0,0,1,2.17,2.27v4h-1.7V38.26a1,1,0,0,0-1-1.09,1.12,1.12,0,0,0-1.11.85v3.89H233.4Z"/><path class="cls-1" d="M244.26,41.15a2,2,0,0,1-1.51.63A2.83,2.83,0,0,1,240,38.7a2.83,2.83,0,0,1,2.79-3.07,2.06,2.06,0,0,1,1.51.62v-.48H246v5.47a2.79,2.79,0,0,1-3,3.08,2.57,2.57,0,0,1-2.86-2.19h1.65a1.1,1.1,0,0,0,1.21.87c.87,0,1.32-.51,1.32-1.5Zm0-3.45a1.37,1.37,0,0,0-1.15-.63,1.66,1.66,0,0,0,0,3.29,1.35,1.35,0,0,0,1.15-.65Z"/><path class="cls-1" d="M199,56.21v-5h1.76V56c0,1.44.63,2.13,1.75,2.13s1.75-.69,1.75-2.13V51.16H206v5a3.51,3.51,0,1,1-7,0Z"/><path class="cls-1" d="M211.21,55.14a1.7,1.7,0,0,0-.85-.21,1.11,1.11,0,0,0-1.17.87V59.6h-1.71V53.46h1.71v.6a1.58,1.58,0,0,1,1.37-.74,1.6,1.6,0,0,1,.65.11Z"/><path class="cls-1" d="M214,59.6H212.3V50.67H214V54a2.12,2.12,0,0,1,1.54-.65c1.79,0,2.79,1.46,2.79,3.22s-1,3.2-2.79,3.2A2.12,2.12,0,0,1,214,59.1Zm0-2.06a1.26,1.26,0,0,0,1.15.71,1.75,1.75,0,0,0,0-3.45,1.3,1.3,0,0,0-1.15.72Z"/><path class="cls-1" d="M222.87,59.6v-.33a2.44,2.44,0,0,1-1.5.44,2.06,2.06,0,0,1-2.28-2,2.14,2.14,0,0,1,2.38-2,2.86,2.86,0,0,1,1.4.36v-.45a.9.9,0,0,0-1-.95.88.88,0,0,0-.91.58h-1.62a2.46,2.46,0,0,1,2.58-2,2.28,2.28,0,0,1,2.58,2.36V59.6Zm0-2.12a1.21,1.21,0,0,0-1.11-.54c-.54,0-1.09.23-1.09.76s.55.76,1.09.76a1.21,1.21,0,0,0,1.11-.54Z"/><path class="cls-1" d="M225.9,53.46h1.71V54a2.2,2.2,0,0,1,1.65-.7,2.06,2.06,0,0,1,2.17,2.27v4h-1.7V55.95a1,1,0,0,0-1-1.09,1.12,1.12,0,0,0-1.11.85V59.6H225.9Z"/><path class="cls-1" d="M235.83,51.16h3A3.91,3.91,0,0,1,243,55.38a3.91,3.91,0,0,1-4.17,4.22h-3Zm2.91,6.89a2.36,2.36,0,0,0,2.49-2.67,2.37,2.37,0,0,0-2.49-2.68h-1.17v5.35Z"/><path class="cls-1" d="M249.52,57.6a2.51,2.51,0,0,1-2.72,2.15,2.94,2.94,0,0,1-3-3.2,3,3,0,0,1,3-3.22c1.8,0,2.79,1.25,2.79,3.05v.52h-4.1c.05.92.58,1.47,1.33,1.47a1.06,1.06,0,0,0,1.14-.77Zm-4-1.73h2.38a1.08,1.08,0,0,0-1.1-1.16A1.26,1.26,0,0,0,245.5,55.87Z"/><path class="cls-1" d="M252,57.78a1,1,0,0,0,1,.67c.52,0,.87-.21.87-.6s-.19-.41-.62-.52L252,57c-.94-.22-1.6-.7-1.6-1.73a2.18,2.18,0,0,1,2.45-2,2.32,2.32,0,0,1,2.61,1.9h-1.62a.9.9,0,0,0-1-.6c-.41,0-.81.19-.81.58s.17.38.55.48l1.26.29c1.07.26,1.64.85,1.64,1.79,0,1.25-1.09,2-2.52,2s-2.56-.72-2.74-2Z"/><path class="cls-1" d="M257.52,52.66a1,1,0,1,1,1-1A1,1,0,0,1,257.52,52.66Zm.85,6.94h-1.71V53.46h1.71Z"/><path class="cls-1" d="M263.78,58.83a2,2,0,0,1-1.51.63,3.09,3.09,0,0,1,0-6.15,2.06,2.06,0,0,1,1.51.62v-.48h1.69v5.47a2.79,2.79,0,0,1-3,3.08,2.57,2.57,0,0,1-2.86-2.19h1.65a1.1,1.1,0,0,0,1.21.87c.87,0,1.32-.51,1.32-1.5Zm0-3.45a1.37,1.37,0,0,0-1.15-.63,1.66,1.66,0,0,0,0,3.29,1.35,1.35,0,0,0,1.15-.65Z"/><path class="cls-1" d="M267,53.46h1.71V54a2.2,2.2,0,0,1,1.65-.7,2.06,2.06,0,0,1,2.17,2.27v4h-1.7V55.95a1,1,0,0,0-1-1.09,1.12,1.12,0,0,0-1.11.85V59.6H267Z"/></svg>
